<?xml version='1.0' encoding='utf-8'?>
<svg xmlns="http://www.w3.org/2000/svg" width="120" height="120" viewBox="0 0 166.17 151.83"><defs /><rect x="73.04" y="83.15" width="84.79" height="4.48" rx="2.24" ry="2.24" transform="translate(-63.4 62.32) rotate(-45)" fill="#fcc875" /><rect x="72.04" y="152.15" width="84.79" height="4.48" rx="2.24" ry="2.24" transform="translate(105.86 -80.02) rotate(45)" fill="#fcc875" /><rect x="122.12" y="145.47" width="79.88" height="17.53" rx="8.76" ry="8.76" transform="translate(-76.48 206.69) rotate(-69.21)" fill="#845e48" stroke="#333" stroke-miterlimit="10" stroke-width="8" /><rect x="122.12" y="77.47" width="79.88" height="17.53" rx="8.76" ry="8.76" transform="translate(148.34 -140.2) rotate(69.21)" fill="#845e48" stroke="#333" stroke-miterlimit="10" stroke-width="8" /><rect x="44.17" y="57.68" width="118" height="37" rx="4.33" ry="4.33" stroke="#333" stroke-miterlimit="10" stroke-width="8" fill="#666" /><rect x="47.67" y="70.18" width="111" height="11" fill="#845e48" stroke="#333" stroke-miterlimit="10" stroke-width="5" /><path d="M82.7,103V138c0,9.12-4.94,15.79-10,13.55L47.9,140.67c-3.57-1.57-6.07-7.15-6.07-13.55V113.88c0-6.4,2.5-12,6.07-13.55L72.67,89.42C77.76,87.18,82.7,93.85,82.7,103Z" transform="translate(-36.83 -44.32)" fill="#845e48" stroke="#333" stroke-miterlimit="10" stroke-width="10" /></svg>