<?xml version='1.0' encoding='utf-8'?>
<svg xmlns="http://www.w3.org/2000/svg" width="120" height="120" viewBox="0 0 176 114.97"><defs /><circle cx="17.52" cy="16.5" r="53.48" transform="translate(71.99 73.97) rotate(-86.54)" fill="#666" stroke="#333" stroke-miterlimit="10" stroke-width="8" /><rect x="77" y="69.99" width="31" height="31" rx="15.5" ry="15.5" stroke="#333" stroke-miterlimit="10" fill="#845e48" stroke-width="10" /><rect x="77" y="15.99" width="31" height="31" rx="15.5" ry="15.5" stroke="#333" stroke-miterlimit="10" fill="#845e48" stroke-width="10" /><path d="M73,39.09-21.8,47.76c-5.5.5-10.19-5-10.19-11.87V-3C-32-9.94-27.3-15.4-21.8-14.9L73-6.23c5,.45,8.81,5.63,8.81,11.87V27.22C81.78,33.46,77.94,38.64,73,39.09Z" transform="translate(72 40.99)" fill="#666" stroke="#333" stroke-miterlimit="10" stroke-width="10" /><path d="M-39.54-6.23l11.61-8.67c.67-.5,1.25,5,1.25,11.87V35.89c0,6.91-.57,12.37-1.25,11.87l-11.61-8.67c-.61-.45-1.08-5.63-1.08-11.87V5.64C-40.62-.6-40.15-5.78-39.54-6.23Z" transform="translate(72 40.99)" fill="#666" stroke="#333" stroke-miterlimit="10" stroke-width="10" /><rect x="38.35" y="31.4" width="19.1" height="52.04" rx="8.87" ry="8.87" fill="#666" /><rect x="148" y="29.99" width="23" height="54" rx="8" ry="8" fill="#666" stroke="#333" stroke-miterlimit="10" stroke-width="10" /><circle cx="16.5" cy="57.49" r="11.5" fill="#666" stroke="#333" stroke-miterlimit="10" stroke-width="10" /></svg>