<?xml version='1.0' encoding='utf-8'?>
<svg xmlns="http://www.w3.org/2000/svg" width="120" height="120" viewBox="0 0 176 95"><defs /><rect x="77" y="59" width="31" height="31" rx="15.5" ry="15.5" fill="#41f384" stroke="#333" stroke-miterlimit="10" stroke-width="10" /><rect x="77" y="5" width="31" height="31" rx="15.5" ry="15.5" fill="#41f384" stroke="#333" stroke-miterlimit="10" stroke-width="10" /><path d="M114,86.09,19.2,94.76C13.7,95.27,9,89.81,9,82.89V44C9,37.06,13.7,31.6,19.2,32.1L114,40.77c5,.45,8.81,5.63,8.81,11.87V74.22C122.78,80.46,118.94,85.64,114,86.09Z" transform="translate(31 -17)" stroke="#333" stroke-miterlimit="10" stroke-width="10" fill="#6d6d6d" /><path d="M1.46,40.77,13.07,32.1c.67-.5,1.25,5,1.25,11.87V82.89c0,6.91-.57,12.37-1.25,11.87L1.46,86.09C.85,85.64.38,80.46.38,74.22V52.64C.38,46.4.85,41.22,1.46,40.77Z" transform="translate(31 -17)" stroke="#333" stroke-miterlimit="10" stroke-width="10" fill="#6d6d6d" /><rect x="38.35" y="20.41" width="19.1" height="52.04" rx="8.87" ry="8.87" fill="#6d6d6d" /><rect x="148" y="19" width="23" height="54" rx="8" ry="8" stroke="#333" stroke-miterlimit="10" stroke-width="10" fill="#6d6d6d" /><circle cx="16.5" cy="46.5" r="11.5" stroke="#333" stroke-miterlimit="10" stroke-width="10" fill="#6d6d6d" /></svg>