<?xml version='1.0' encoding='utf-8'?>
<svg xmlns="http://www.w3.org/2000/svg" width="48" height="48" viewBox="0 0 74 74"><defs /><rect x="32" y="32" width="64" height="64" rx="11.95" ry="11.95" transform="translate(101 -27) rotate(90)" fill="#875f45" opacity="0.8" /><rect x="32" y="32" width="64" height="64" rx="11.95" ry="11.95" transform="translate(101 -27) rotate(90)" fill="#666" stroke="#333" stroke-miterlimit="10" stroke-width="10" /><rect x="59" y="30" width="5" height="13" fill="gray" /><rect x="62" y="33" width="5" height="13" transform="translate(-2 77) rotate(-90)" fill="gray" /><rect x="62" y="82" width="5" height="13" transform="translate(-51 126) rotate(-90)" fill="gray" /><rect x="10" y="19" width="7" height="36" fill="#333" /><rect x="57" y="18" width="7" height="36" fill="#333" /><rect x="60.5" y="69.5" width="7" height="36" transform="translate(-50.5 124.5) rotate(-90)" fill="#333" /><rect x="60.5" y="22.5" width="7" height="36" transform="translate(-3.5 77.5) rotate(-90)" fill="#333" /></svg>