<?xml version='1.0' encoding='utf-8'?>
<svg xmlns="http://www.w3.org/2000/svg" width="120" height="120" viewBox="0 0 172.5 172.5">
  <defs>
    <style>.cls-1{fill:#29abe2;stroke:#333;stroke-miterlimit:10;stroke-width:8px;}</style>
  </defs>
  <rect x="-45" y="24" width="128" height="128" rx="12" ry="12" transform="matrix(0, 1, -1, 0, 174.413956, 66.124039)" style="fill: #845e48;" fill="#845e48" stroke="#333" stroke-miterlimit="10" stroke-width="10" />
  <circle cx="19.52" cy="88.5" r="53.48" transform="matrix(0.060352, -0.998177, 0.998177, 0.060352, -2.576034, 99.764038)" stroke="#333" stroke-miterlimit="10" fill="#666" stroke-width="8" />
  <rect x="-32.92" y="40.57" width="25.97" height="16" rx="5.61" ry="5.61" transform="matrix(0.707107, 0.707107, -0.707107, 0.707107, 95.913966, 25.444042)" stroke="#333" stroke-miterlimit="10" stroke-width="10" fill="#845e48" />
  <rect x="45.08" y="40.57" width="25.97" height="16" rx="5.61" ry="5.61" transform="matrix(-0.707107, 0.707107, -0.707107, -0.707107, 200.88395, 38.974028)" stroke="#333" stroke-miterlimit="10" stroke-width="10" fill="#845e48" />
  <rect x="44.08" y="119.57" width="25.97" height="16" rx="5.61" ry="5.61" transform="matrix(-0.707107, -0.707107, 0.707108, -0.707108, 74.633879, 255.24413)" stroke="#333" stroke-miterlimit="10" stroke-width="10" fill="#845e48" />
  <rect x="-32.92" y="118.57" width="25.97" height="16" rx="5.61" ry="5.61" transform="matrix(0.707107, -0.707107, 0.707107, 0.707108, -27.916104, 20.103947)" stroke="#333" stroke-miterlimit="10" stroke-width="10" fill="#845e48" />
  <rect x="52.414" y="50.124" width="68" height="68" rx="5.5" ry="5.5" stroke="#333" stroke-miterlimit="10" stroke-width="10" fill="#845e48" />
  <circle cx="86.414" cy="84.124" r="25" stroke="#333" stroke-miterlimit="10" stroke-width="10" fill="#666" />
  <circle cx="86.134" cy="83.237" r="23.272" fill="#845e48" stroke="#333" stroke-miterlimit="10" stroke-width="10" />
</svg>