<?xml version='1.0' encoding='utf-8'?>
<svg xmlns="http://www.w3.org/2000/svg" width="96" height="96" viewBox="0 0 138 138"><defs /><g id="Layer_1" data-name="Layer 1"><rect x="64" y="53" width="128" height="128" rx="12" ry="12" transform="translate(186 -59) rotate(90)" fill="#ccc" stroke-width="10" stroke="#333" stroke-miterlimit="10" /></g><g id="Layer_2" data-name="Layer 2"><circle cx="34.07" cy="35.13" r="16.87" stroke="#333" stroke-miterlimit="10" fill="#dda95e" stroke-width="8" /><circle cx="32.07" cy="60.13" r="16.87" stroke="#333" stroke-miterlimit="10" fill="#dda95e" stroke-width="8" /><circle cx="34.07" cy="107.13" r="16.87" stroke="#333" stroke-miterlimit="10" fill="#dda95e" stroke-width="8" /><circle cx="27.07" cy="86.13" r="16.87" stroke="#333" stroke-miterlimit="10" fill="#dda95e" stroke-width="8" /><circle cx="61.07" cy="106.13" r="16.87" stroke="#333" stroke-miterlimit="10" fill="#dda95e" stroke-width="8" /><circle cx="102.07" cy="106.13" r="16.87" stroke="#333" stroke-miterlimit="10" fill="#dda95e" stroke-width="8" /><circle cx="52.07" cy="84.13" r="16.87" stroke="#333" stroke-miterlimit="10" fill="#dda95e" stroke-width="8" /><circle cx="46.07" cy="49.13" r="16.87" stroke="#333" stroke-miterlimit="10" fill="#dda95e" stroke-width="8" /><circle cx="78.07" cy="30.13" r="16.87" stroke="#333" stroke-miterlimit="10" fill="#dda95e" stroke-width="8" /><circle cx="61.07" cy="33.13" r="16.87" stroke="#333" stroke-miterlimit="10" fill="#dda95e" stroke-width="8" /><circle cx="109.07" cy="35.13" r="16.87" stroke="#333" stroke-miterlimit="10" fill="#dda95e" stroke-width="8" /><circle cx="99.07" cy="64.13" r="16.87" stroke="#333" stroke-miterlimit="10" fill="#dda95e" stroke-width="8" /><circle cx="95.07" cy="39.13" r="16.87" stroke="#333" stroke-miterlimit="10" fill="#dda95e" stroke-width="8" /><circle cx="110.07" cy="69.13" r="16.87" stroke="#333" stroke-miterlimit="10" fill="#dda95e" stroke-width="8" /><circle cx="75.07" cy="48.13" r="16.87" stroke="#333" stroke-miterlimit="10" fill="#dda95e" stroke-width="8" /><circle cx="90.07" cy="61.13" r="16.87" stroke="#333" stroke-miterlimit="10" fill="#dda95e" stroke-width="8" /><circle cx="104.07" cy="91.13" r="16.87" stroke="#333" stroke-miterlimit="10" fill="#dda95e" stroke-width="8" /><circle cx="78.07" cy="105.13" r="16.87" stroke="#333" stroke-miterlimit="10" fill="#dda95e" stroke-width="8" /><circle cx="59.07" cy="61.13" r="16.87" stroke="#333" stroke-miterlimit="10" fill="#dda95e" stroke-width="8" /><circle cx="80.07" cy="81.13" r="16.87" stroke="#333" stroke-miterlimit="10" fill="#dda95e" stroke-width="8" /></g></svg>