<?xml version='1.0' encoding='utf-8'?>
<svg xmlns="http://www.w3.org/2000/svg" width="96" height="96" viewBox="0 0 138 138"><defs /><rect width="128" height="128" rx="12" ry="12" transform="translate(133 5) rotate(90)" fill="#fbb03b" stroke="#333" stroke-miterlimit="10" stroke-width="10" /><circle cx="64.52" cy="64.5" r="53.48" transform="translate(1.25 130.01) rotate(-86.54)" stroke="#333" stroke-miterlimit="10" fill="#d8d8d8" stroke-width="8" /><rect x="12.08" y="16.57" width="25.97" height="16" rx="5.61" ry="5.61" transform="translate(29.71 -5.53) rotate(45)" fill="#fbb03b" stroke="#333" stroke-miterlimit="10" stroke-width="10" /><rect x="90.08" y="16.57" width="25.97" height="16" rx="5.61" ry="5.61" transform="translate(198.32 -25.94) rotate(135)" fill="#fbb03b" stroke="#333" stroke-miterlimit="10" stroke-width="10" /><rect x="89.08" y="95.57" width="25.97" height="16" rx="5.61" ry="5.61" transform="translate(106.01 253.97) rotate(-135)" fill="#fbb03b" stroke="#333" stroke-miterlimit="10" stroke-width="10" /><rect x="12.08" y="94.57" width="25.97" height="16" rx="5.61" ry="5.61" transform="translate(-60.18 52.77) rotate(-45)" fill="#fbb03b" stroke="#333" stroke-miterlimit="10" stroke-width="10" /><rect x="35" y="34" width="68" height="68" rx="5.5" ry="5.5" fill="#fbb03b" stroke="#333" stroke-miterlimit="10" stroke-width="10" /><circle cx="69" cy="68" r="25" stroke="#333" stroke-miterlimit="10" stroke-width="10" fill="#d8d8d8" /></svg>