<?xml version='1.0' encoding='utf-8'?>
<svg xmlns="http://www.w3.org/2000/svg" width="96" height="96" viewBox="0 0 138 138"><defs /><rect x="-45" y="24" width="128" height="128" rx="12" ry="12" transform="translate(157 50) rotate(90)" fill="#845e48" stroke="#333" stroke-miterlimit="10" stroke-width="10" /><circle cx="19.52" cy="88.5" r="53.48" transform="translate(-19.99 83.64) rotate(-86.54)" stroke="#333" stroke-miterlimit="10" fill="#666" stroke-width="8" /><rect x="-32.92" y="40.57" width="25.97" height="16" rx="5.61" ry="5.61" transform="translate(78.5 9.32) rotate(45)" stroke="#333" stroke-miterlimit="10" stroke-width="10" fill="#845e48" /><rect x="45.08" y="40.57" width="25.97" height="16" rx="5.61" ry="5.61" transform="translate(183.47 22.85) rotate(135)" stroke="#333" stroke-miterlimit="10" stroke-width="10" fill="#845e48" /><rect x="44.08" y="119.57" width="25.97" height="16" rx="5.61" ry="5.61" transform="translate(57.22 239.12) rotate(-135)" stroke="#333" stroke-miterlimit="10" stroke-width="10" fill="#845e48" /><rect x="-32.92" y="118.57" width="25.97" height="16" rx="5.61" ry="5.61" transform="translate(-45.33 3.98) rotate(-45)" stroke="#333" stroke-miterlimit="10" stroke-width="10" fill="#845e48" /><rect x="35" y="34" width="68" height="68" rx="5.5" ry="5.5" stroke="#333" stroke-miterlimit="10" stroke-width="10" fill="#845e48" /><circle cx="69" cy="68" r="25" stroke="#333" stroke-miterlimit="10" stroke-width="10" fill="#666" /></svg>