<?xml version='1.0' encoding='utf-8'?>
<svg xmlns="http://www.w3.org/2000/svg" width="140" height="50" viewBox="0 0 220 80">
  <defs>
    </defs>
  <rect x="491.81" y="437.967" width="98.13" height="11.05" rx="4.33" ry="4.33" transform="matrix(0.999885, -0.015184, 0.015184, 0.999882, -430.141712, -393.295064)" fill="#875f45" stroke="#333" stroke-width="8" stroke-miterlimit="10" />
  <circle cx="30.27" cy="47.23" r="11.59" transform="matrix(0.060351, -0.998177, 0.998178, 0.060352, 39.779804, 77.814804)" stroke="#333" stroke-width="8" stroke-miterlimit="10" fill="#d8b27d" />
  <circle cx="74.73" cy="47.1" r="11.59" transform="matrix(0.060352, -0.998178, 0.998177, 0.060352, 81.689796, 122.064857)" stroke="#333" stroke-width="8" stroke-miterlimit="10" fill="#d8b27d" />
  <path d="M 165.009 58.531 L 155.559 58.531 C 153.936 58.578 152.674 57.132 152.939 55.531 C 157.099 34.271 149.939 22.481 146.549 18.231 C 146.005 17.552 146.4 16.539 147.26 16.407 C 147.356 16.393 147.453 16.391 147.549 16.401 L 165.039 16.401 M 164.889 58.531 L 174.329 58.531 C 175.951 58.578 177.214 57.132 176.949 55.531 C 172.789 34.271 179.949 22.481 183.339 18.231 C 183.882 17.552 183.487 16.539 182.627 16.407 C 182.531 16.393 182.435 16.391 182.339 16.401 L 164.859 16.401" stroke="#333" stroke-width="8" stroke-miterlimit="10" fill="#64b9ed" />
  <rect x="160.559" y="20.401" width="10" height="34" fill="#64b9ed" />
  <path d="M 162.009 39.631" stroke="#333" stroke-width="8" stroke-miterlimit="10" fill="#64b9ed" />
  <path d="M 107.059 8.901" stroke-miterlimit="10" fill="#fff" stroke="#000" />
</svg>