<?xml version='1.0' encoding='utf-8'?>
<svg xmlns="http://www.w3.org/2000/svg" width="180" height="52" viewBox="-85 -11 308 88">
  <defs>
    </defs>
  <g id="weapons">
    <rect x="4" y="27.68" width="140.41" height="9.15" rx="4.03" ry="4.03" fill="#875f45" stroke="#333" stroke-miterlimit="10" stroke-width="9" />
    <path d="M143.47,37.41H111.92a3.91,3.91,0,0,1-3.75-2.8L100.05,7.27a3.91,3.91,0,0,1,3.75-5h47.77a3.91,3.91,0,0,1,3.75,5l-8.11,27.34A3.91,3.91,0,0,1,143.47,37.41Z" transform="translate(31.61 1.76)" stroke="#333" stroke-miterlimit="10" stroke-width="9" fill="#4d4d4d" />
    <rect x="135.39" y="6.81" width="47.83" height="4.35" fill="#740c10" opacity="0.7" />
    <circle cx="4.37" cy="40.77" r="17.31" transform="translate(-4.98 44.43) rotate(-86.54)" stroke="#333" stroke-miterlimit="10" stroke-width="9" fill="#d86742" />
    <circle cx="70.74" cy="40.58" r="17.31" transform="translate(57.58 110.5) rotate(-86.54)" stroke="#333" stroke-miterlimit="10" stroke-width="9" fill="#d86742" />
  </g>
</svg>